<svg width="369" height="48" viewBox="0 0 369 48" fill="none" xmlns="http://www.w3.org/2000/svg">
<path d="M0.632 4.016C1.432 4.048 2.504 4.08 3.848 4.112C5.224 4.144 6.584 4.16 7.928 4.16C9.464 4.16 10.952 4.144 12.392 4.112C13.832 4.08 14.856 4.064 15.464 4.064C18.44 4.064 20.904 4.4 22.856 5.072C24.84 5.712 26.312 6.656 27.272 7.904C28.264 9.152 28.76 10.656 28.76 12.416C28.76 13.504 28.536 14.608 28.088 15.728C27.64 16.816 26.872 17.84 25.784 18.8C24.728 19.728 23.272 20.48 21.416 21.056C19.56 21.6 17.224 21.872 14.408 21.872H9.8V20.912H13.928C15.816 20.912 17.24 20.56 18.2 19.856C19.192 19.12 19.864 18.16 20.216 16.976C20.6 15.76 20.792 14.416 20.792 12.944C20.792 10.416 20.344 8.464 19.448 7.088C18.552 5.68 17.016 4.976 14.84 4.976C13.592 4.976 12.776 5.248 12.392 5.792C12.04 6.336 11.864 7.44 11.864 9.104V32.912C11.864 34.064 11.944 34.928 12.104 35.504C12.296 36.08 12.648 36.464 13.16 36.656C13.672 36.848 14.44 36.976 15.464 37.04V38C14.6 37.936 13.512 37.904 12.2 37.904C10.888 37.872 9.56 37.856 8.216 37.856C6.68 37.856 5.224 37.872 3.848 37.904C2.504 37.904 1.432 37.936 0.632 38V37.04C1.656 36.976 2.424 36.848 2.936 36.656C3.448 36.464 3.784 36.08 3.944 35.504C4.136 34.928 4.232 34.064 4.232 32.912V9.104C4.232 7.92 4.136 7.056 3.944 6.512C3.784 5.936 3.432 5.552 2.888 5.36C2.376 5.136 1.624 5.008 0.632 4.976V4.016ZM9.704 21.056C11.08 21.088 12.264 21.152 13.256 21.248C14.28 21.344 15.176 21.44 15.944 21.536C16.712 21.6 17.4 21.648 18.008 21.68C20.92 21.936 23.064 22.56 24.44 23.552C25.848 24.544 26.76 26.032 27.176 28.016L28.28 32.96C28.568 34.24 28.872 35.136 29.192 35.648C29.512 36.16 29.976 36.416 30.584 36.416C31 36.384 31.336 36.288 31.592 36.128C31.88 35.936 32.184 35.664 32.504 35.312L33.176 35.888C32.312 36.88 31.384 37.584 30.392 38C29.4 38.448 28.2 38.672 26.792 38.672C25.064 38.672 23.64 38.304 22.52 37.568C21.4 36.832 20.664 35.472 20.312 33.488L19.448 28.688C19.224 27.344 18.952 26.176 18.632 25.184C18.312 24.16 17.864 23.36 17.288 22.784C16.744 22.176 15.976 21.872 14.984 21.872H9.8L9.704 21.056ZM45.7704 12.512C48.1064 12.512 50.1544 12.944 51.9144 13.808C53.6744 14.672 55.0504 16.064 56.0424 17.984C57.0344 19.904 57.5304 22.448 57.5304 25.616C57.5304 28.784 57.0344 31.328 56.0424 33.248C55.0504 35.136 53.6744 36.512 51.9144 37.376C50.1544 38.24 48.1064 38.672 45.7704 38.672C43.4984 38.672 41.4664 38.24 39.6744 37.376C37.9144 36.512 36.5224 35.136 35.4984 33.248C34.5064 31.328 34.0104 28.784 34.0104 25.616C34.0104 22.448 34.5064 19.904 35.4984 17.984C36.5224 16.064 37.9144 14.672 39.6744 13.808C41.4664 12.944 43.4984 12.512 45.7704 12.512ZM45.7704 13.472C44.4904 13.472 43.4184 14.432 42.5544 16.352C41.6904 18.24 41.2584 21.328 41.2584 25.616C41.2584 29.904 41.6904 32.992 42.5544 34.88C43.4184 36.768 44.4904 37.712 45.7704 37.712C47.0824 37.712 48.1544 36.768 48.9864 34.88C49.8504 32.992 50.2824 29.904 50.2824 25.616C50.2824 21.328 49.8504 18.24 48.9864 16.352C48.1544 14.432 47.0824 13.472 45.7704 13.472ZM84.143 0.415998V32.72C84.143 34.16 84.367 35.232 84.815 35.936C85.263 36.608 86.063 36.944 87.215 36.944V37.952C86.223 37.856 85.231 37.808 84.239 37.808C82.895 37.808 81.631 37.856 80.447 37.952C79.295 38.048 78.223 38.224 77.231 38.48V6.176C77.231 4.736 77.007 3.68 76.559 3.008C76.143 2.304 75.343 1.952 74.159 1.952V0.943999C75.183 1.04 76.175 1.088 77.135 1.088C78.447 1.088 79.695 1.04 80.879 0.943999C82.063 0.815999 83.151 0.639998 84.143 0.415998ZM71.903 12.512C73.311 12.512 74.543 12.752 75.599 13.232C76.687 13.68 77.535 14.448 78.143 15.536L77.567 16.064C77.151 15.296 76.591 14.752 75.887 14.432C75.215 14.08 74.495 13.904 73.727 13.904C72.095 13.904 70.799 14.864 69.839 16.784C68.879 18.672 68.415 21.6 68.447 25.568C68.447 28.288 68.623 30.464 68.975 32.096C69.359 33.696 69.887 34.848 70.559 35.552C71.263 36.256 72.063 36.608 72.959 36.608C74.047 36.608 75.023 36.176 75.887 35.312C76.751 34.448 77.215 33.28 77.279 31.808L77.519 33.488C77.039 35.184 76.255 36.48 75.167 37.376C74.111 38.24 72.719 38.672 70.991 38.672C69.103 38.672 67.407 38.208 65.903 37.28C64.431 36.352 63.279 34.928 62.447 33.008C61.615 31.056 61.199 28.544 61.199 25.472C61.199 22.56 61.663 20.16 62.591 18.272C63.519 16.352 64.783 14.912 66.383 13.952C68.015 12.992 69.855 12.512 71.903 12.512ZM105.727 12.512C106.751 12.512 107.583 12.736 108.223 13.184C108.863 13.6 109.327 14.144 109.615 14.816C109.935 15.488 110.095 16.192 110.095 16.928C110.095 18.112 109.743 19.088 109.039 19.856C108.367 20.592 107.471 20.96 106.351 20.96C105.231 20.96 104.351 20.688 103.711 20.144C103.103 19.568 102.799 18.816 102.799 17.888C102.799 16.992 102.991 16.256 103.375 15.68C103.791 15.072 104.303 14.56 104.911 14.144C104.463 14.016 104.015 14.032 103.567 14.192C102.959 14.288 102.383 14.544 101.839 14.96C101.295 15.344 100.831 15.84 100.447 16.448C100.063 17.024 99.7585 17.664 99.5345 18.368C99.3105 19.04 99.1985 19.696 99.1985 20.336V33.056C99.1985 34.592 99.5665 35.632 100.303 36.176C101.071 36.72 102.207 36.992 103.711 36.992V38C102.975 37.968 101.903 37.936 100.495 37.904C99.0865 37.84 97.6145 37.808 96.0785 37.808C94.7985 37.808 93.5025 37.84 92.1905 37.904C90.8785 37.936 89.8865 37.968 89.2145 38V36.992C90.3345 36.992 91.1185 36.752 91.5665 36.272C92.0465 35.792 92.2865 34.88 92.2865 33.536V18.416C92.2865 16.976 92.0625 15.92 91.6145 15.248C91.1985 14.544 90.3985 14.192 89.2145 14.192V13.184C90.2385 13.28 91.2305 13.328 92.1905 13.328C93.5345 13.328 94.7825 13.28 95.9345 13.184C97.1185 13.056 98.2065 12.88 99.1985 12.656V17.12C99.5825 16.256 100.095 15.472 100.734 14.768C101.375 14.064 102.111 13.52 102.943 13.136C103.775 12.72 104.703 12.512 105.727 12.512ZM117.861 0.799998C119.205 0.799998 120.261 1.136 121.029 1.808C121.829 2.448 122.229 3.344 122.229 4.496C122.229 5.648 121.829 6.56 121.029 7.232C120.261 7.872 119.205 8.192 117.861 8.192C116.517 8.192 115.445 7.872 114.645 7.232C113.877 6.56 113.493 5.648 113.493 4.496C113.493 3.344 113.877 2.448 114.645 1.808C115.445 1.136 116.517 0.799998 117.861 0.799998ZM121.605 12.656V33.536C121.605 34.88 121.829 35.792 122.277 36.272C122.757 36.752 123.557 36.992 124.677 36.992V38C124.101 37.968 123.205 37.936 121.989 37.904C120.773 37.84 119.541 37.808 118.293 37.808C117.045 37.808 115.781 37.84 114.501 37.904C113.221 37.936 112.261 37.968 111.621 38V36.992C112.741 36.992 113.525 36.752 113.973 36.272C114.453 35.792 114.693 34.88 114.693 33.536V18.416C114.693 16.976 114.469 15.92 114.021 15.248C113.605 14.544 112.805 14.192 111.621 14.192V13.184C112.645 13.28 113.637 13.328 114.597 13.328C115.941 13.328 117.189 13.28 118.341 13.184C119.525 13.056 120.613 12.88 121.605 12.656ZM136.073 47.024C134.089 47.024 132.313 46.848 130.745 46.496C129.209 46.176 127.993 45.664 127.097 44.96C126.233 44.288 125.801 43.456 125.801 42.464C125.801 41.472 126.249 40.576 127.145 39.776C128.041 39.008 129.369 38.4 131.129 37.952L131.561 38.72C130.953 39.2 130.505 39.712 130.217 40.256C129.961 40.832 129.833 41.424 129.833 42.032C129.833 43.376 130.441 44.4 131.657 45.104C132.905 45.84 134.585 46.208 136.697 46.208C138.137 46.208 139.417 46.016 140.537 45.632C141.689 45.248 142.585 44.672 143.225 43.904C143.897 43.136 144.233 42.192 144.233 41.072C144.233 40.112 143.881 39.296 143.177 38.624C142.473 37.984 141.065 37.664 138.953 37.664H135.977C134.665 37.664 133.513 37.52 132.521 37.232C131.561 36.944 130.809 36.496 130.265 35.888C129.721 35.248 129.449 34.448 129.449 33.488C129.449 32.144 129.977 30.96 131.033 29.936C132.089 28.912 133.657 27.952 135.737 27.056L136.217 27.44C135.609 27.824 135.033 28.24 134.489 28.688C133.977 29.104 133.721 29.648 133.721 30.32C133.721 31.344 134.361 31.856 135.641 31.856H140.873C142.633 31.856 144.201 32.064 145.577 32.48C146.985 32.896 148.089 33.584 148.889 34.544C149.721 35.472 150.137 36.688 150.137 38.192C150.137 39.76 149.625 41.216 148.601 42.56C147.609 43.904 146.073 44.976 143.993 45.776C141.913 46.608 139.273 47.024 136.073 47.024ZM136.553 27.776C134.729 27.776 133.097 27.504 131.657 26.96C130.217 26.416 129.081 25.584 128.249 24.464C127.417 23.344 127.001 21.904 127.001 20.144C127.001 18.384 127.417 16.944 128.249 15.824C129.081 14.672 130.217 13.84 131.657 13.328C133.097 12.784 134.729 12.512 136.553 12.512C138.377 12.512 140.009 12.784 141.449 13.328C142.889 13.84 144.025 14.672 144.857 15.824C145.689 16.944 146.105 18.384 146.105 20.144C146.105 21.904 145.689 23.344 144.857 24.464C144.025 25.584 142.889 26.416 141.449 26.96C140.009 27.504 138.377 27.776 136.553 27.776ZM136.553 26.912C137.417 26.912 138.089 26.432 138.569 25.472C139.049 24.48 139.289 22.704 139.289 20.144C139.289 17.584 139.049 15.824 138.569 14.864C138.089 13.872 137.417 13.376 136.553 13.376C135.721 13.376 135.049 13.872 134.537 14.864C134.057 15.824 133.817 17.584 133.817 20.144C133.817 22.704 134.057 24.48 134.537 25.472C135.049 26.432 135.721 26.912 136.553 26.912ZM144.041 16.64L143.081 16.304C143.561 15.056 144.329 14.016 145.385 13.184C146.473 12.352 147.641 11.936 148.889 11.936C149.913 11.936 150.681 12.224 151.193 12.8C151.737 13.344 152.009 14.064 152.009 14.96C152.009 15.92 151.753 16.64 151.241 17.12C150.729 17.568 150.153 17.792 149.513 17.792C148.969 17.792 148.457 17.6 147.977 17.216C147.529 16.832 147.273 16.256 147.209 15.488C147.145 14.688 147.417 13.664 148.025 12.416L148.361 12.704C147.145 13.152 146.233 13.68 145.625 14.288C145.017 14.864 144.489 15.648 144.041 16.64ZM164.927 12.512C167.263 12.512 169.311 12.944 171.071 13.808C172.831 14.672 174.207 16.064 175.199 17.984C176.191 19.904 176.687 22.448 176.687 25.616C176.687 28.784 176.191 31.328 175.199 33.248C174.207 35.136 172.831 36.512 171.071 37.376C169.311 38.24 167.263 38.672 164.927 38.672C162.655 38.672 160.623 38.24 158.831 37.376C157.071 36.512 155.679 35.136 154.655 33.248C153.663 31.328 153.167 28.784 153.167 25.616C153.167 22.448 153.663 19.904 154.655 17.984C155.679 16.064 157.071 14.672 158.831 13.808C160.623 12.944 162.655 12.512 164.927 12.512ZM164.927 13.472C163.647 13.472 162.575 14.432 161.711 16.352C160.847 18.24 160.415 21.328 160.415 25.616C160.415 29.904 160.847 32.992 161.711 34.88C162.575 36.768 163.647 37.712 164.927 37.712C166.239 37.712 167.311 36.768 168.143 34.88C169.007 32.992 169.439 29.904 169.439 25.616C169.439 21.328 169.007 18.24 168.143 16.352C167.311 14.432 166.239 13.472 164.927 13.472ZM208.79 3.344C210.902 3.344 212.63 3.664 213.974 4.304C215.35 4.912 216.566 5.632 217.622 6.464C218.262 6.944 218.742 7.008 219.062 6.656C219.414 6.272 219.654 5.392 219.782 4.016H220.886C220.822 5.264 220.774 6.784 220.742 8.576C220.71 10.336 220.694 12.688 220.694 15.632H219.59C219.43 14.16 219.222 12.912 218.966 11.888C218.71 10.832 218.358 9.904 217.91 9.104C217.462 8.304 216.822 7.584 215.99 6.944C215.19 6.144 214.262 5.552 213.206 5.168C212.15 4.784 211.046 4.592 209.894 4.592C208.166 4.592 206.694 5.056 205.478 5.984C204.262 6.88 203.27 8.112 202.502 9.68C201.766 11.248 201.222 13.024 200.87 15.008C200.518 16.96 200.342 18.992 200.342 21.104C200.342 23.248 200.518 25.312 200.87 27.296C201.254 29.248 201.83 30.992 202.598 32.528C203.398 34.064 204.422 35.28 205.67 36.176C206.918 37.072 208.39 37.52 210.086 37.52C211.142 37.52 212.198 37.328 213.254 36.944C214.342 36.528 215.27 35.936 216.038 35.168C217.286 34.208 218.134 33.024 218.582 31.616C219.03 30.176 219.366 28.272 219.59 25.904H220.694C220.694 28.944 220.71 31.408 220.742 33.296C220.774 35.152 220.822 36.72 220.886 38H219.782C219.654 36.624 219.43 35.76 219.11 35.408C218.822 35.056 218.326 35.104 217.622 35.552C216.438 36.384 215.174 37.12 213.83 37.76C212.518 38.368 210.822 38.672 208.742 38.672C205.35 38.672 202.374 37.984 199.814 36.608C197.286 35.232 195.318 33.248 193.91 30.656C192.502 28.064 191.798 24.944 191.798 21.296C191.798 17.712 192.518 14.576 193.958 11.888C195.43 9.2 197.43 7.104 199.958 5.6C202.518 4.096 205.462 3.344 208.79 3.344ZM231.354 38.336C229.914 38.336 228.714 38.064 227.754 37.52C226.794 36.976 226.09 36.256 225.642 35.36C225.194 34.432 224.97 33.424 224.97 32.336C224.97 30.96 225.274 29.84 225.882 28.976C226.522 28.112 227.338 27.408 228.33 26.864C229.322 26.32 230.362 25.872 231.45 25.52C232.57 25.168 233.626 24.832 234.618 24.512C235.642 24.16 236.458 23.76 237.066 23.312C237.706 22.832 238.026 22.224 238.026 21.488V17.744C238.026 16.912 237.882 16.176 237.594 15.536C237.338 14.864 236.922 14.352 236.346 14C235.802 13.648 235.082 13.472 234.186 13.472C233.546 13.472 232.906 13.568 232.266 13.76C231.626 13.92 231.098 14.208 230.682 14.624C231.578 14.944 232.266 15.44 232.746 16.112C233.258 16.752 233.514 17.488 233.514 18.32C233.514 19.408 233.13 20.272 232.362 20.912C231.626 21.552 230.746 21.872 229.722 21.872C228.57 21.872 227.69 21.52 227.082 20.816C226.506 20.08 226.218 19.2 226.218 18.176C226.218 17.248 226.442 16.48 226.89 15.872C227.37 15.264 228.026 14.688 228.858 14.144C229.754 13.632 230.826 13.232 232.074 12.944C233.354 12.656 234.73 12.512 236.202 12.512C237.674 12.512 239.002 12.672 240.186 12.992C241.37 13.28 242.362 13.824 243.162 14.624C243.898 15.36 244.378 16.272 244.602 17.36C244.826 18.416 244.938 19.76 244.938 21.392V34.448C244.938 35.248 245.018 35.808 245.178 36.128C245.338 36.416 245.61 36.56 245.994 36.56C246.282 36.56 246.554 36.48 246.81 36.32C247.098 36.16 247.402 35.968 247.722 35.744L248.202 36.56C247.53 37.136 246.746 37.584 245.85 37.904C244.986 38.192 244.01 38.336 242.922 38.336C241.738 38.336 240.794 38.176 240.09 37.856C239.386 37.504 238.874 37.04 238.554 36.464C238.266 35.888 238.122 35.216 238.122 34.448C237.354 35.664 236.426 36.624 235.338 37.328C234.25 38 232.922 38.336 231.354 38.336ZM234.762 35.264C235.402 35.264 235.978 35.12 236.49 34.832C237.034 34.512 237.546 34 238.026 33.296V23.456C237.738 23.936 237.338 24.368 236.826 24.752C236.314 25.136 235.77 25.536 235.194 25.952C234.618 26.336 234.058 26.768 233.514 27.248C233.002 27.728 232.586 28.32 232.266 29.024C231.946 29.728 231.786 30.576 231.786 31.568C231.786 32.816 232.058 33.744 232.602 34.352C233.146 34.96 233.866 35.264 234.762 35.264ZM267.43 12.512C268.774 12.512 269.862 12.688 270.694 13.04C271.558 13.36 272.23 13.808 272.71 14.384C273.222 14.992 273.59 15.776 273.814 16.736C274.07 17.696 274.198 18.992 274.198 20.624V33.536C274.198 34.88 274.422 35.792 274.87 36.272C275.35 36.752 276.15 36.992 277.27 36.992V38C276.662 37.968 275.75 37.936 274.534 37.904C273.318 37.84 272.118 37.808 270.934 37.808C269.718 37.808 268.518 37.84 267.334 37.904C266.182 37.936 265.302 37.968 264.694 38V36.992C265.654 36.992 266.326 36.752 266.71 36.272C267.094 35.792 267.286 34.88 267.286 33.536V18.608C267.286 17.808 267.206 17.12 267.046 16.544C266.886 15.936 266.598 15.472 266.182 15.152C265.766 14.8 265.142 14.624 264.31 14.624C263.446 14.624 262.646 14.864 261.91 15.344C261.206 15.824 260.63 16.496 260.182 17.36C259.766 18.192 259.558 19.136 259.558 20.192V33.536C259.558 34.88 259.75 35.792 260.134 36.272C260.55 36.752 261.222 36.992 262.15 36.992V38C261.574 37.968 260.726 37.936 259.606 37.904C258.518 37.84 257.382 37.808 256.198 37.808C254.982 37.808 253.734 37.84 252.454 37.904C251.174 37.936 250.214 37.968 249.574 38V36.992C250.694 36.992 251.478 36.752 251.926 36.272C252.406 35.792 252.646 34.88 252.646 33.536V18.416C252.646 16.976 252.422 15.92 251.974 15.248C251.558 14.544 250.758 14.192 249.574 14.192V13.184C250.598 13.28 251.59 13.328 252.55 13.328C253.894 13.328 255.142 13.28 256.294 13.184C257.478 13.056 258.566 12.88 259.558 12.656V16.976C260.358 15.344 261.446 14.192 262.822 13.52C264.198 12.848 265.734 12.512 267.43 12.512ZM291.442 12.512C294.258 12.512 296.466 13.344 298.066 15.008C299.666 16.672 300.466 19.392 300.466 23.168H284.674L284.578 22.256H294.418C294.45 20.688 294.354 19.248 294.13 17.936C293.906 16.592 293.554 15.52 293.074 14.72C292.594 13.92 291.954 13.52 291.154 13.52C290.034 13.52 289.074 14.224 288.274 15.632C287.506 17.04 287.042 19.376 286.882 22.64L287.026 22.928C286.994 23.312 286.962 23.712 286.93 24.128C286.93 24.544 286.93 24.976 286.93 25.424C286.93 27.632 287.234 29.424 287.842 30.8C288.482 32.176 289.282 33.184 290.242 33.824C291.202 34.432 292.178 34.736 293.17 34.736C293.842 34.736 294.53 34.64 295.234 34.448C295.97 34.224 296.706 33.84 297.442 33.296C298.178 32.72 298.866 31.92 299.506 30.896L300.37 31.184C299.986 32.4 299.378 33.584 298.546 34.736C297.714 35.888 296.658 36.832 295.378 37.568C294.098 38.304 292.562 38.672 290.77 38.672C288.594 38.672 286.674 38.208 285.01 37.28C283.346 36.352 282.034 34.944 281.074 33.056C280.146 31.168 279.682 28.768 279.682 25.856C279.682 22.88 280.178 20.4 281.17 18.416C282.194 16.432 283.586 14.96 285.346 14C287.138 13.008 289.17 12.512 291.442 12.512ZM312.75 12.512C314.094 12.512 315.262 12.688 316.254 13.04C317.278 13.36 318.014 13.68 318.462 14C319.55 14.736 320.222 14.256 320.478 12.56H321.486C321.422 13.456 321.374 14.56 321.342 15.872C321.31 17.152 321.294 18.864 321.294 21.008H320.286C320.126 19.824 319.822 18.656 319.374 17.504C318.926 16.352 318.27 15.408 317.406 14.672C316.574 13.936 315.486 13.568 314.142 13.568C313.214 13.568 312.43 13.84 311.79 14.384C311.15 14.896 310.83 15.648 310.83 16.64C310.83 17.6 311.118 18.448 311.694 19.184C312.27 19.888 313.006 20.576 313.902 21.248C314.83 21.888 315.79 22.576 316.782 23.312C317.838 24.112 318.798 24.912 319.662 25.712C320.526 26.48 321.214 27.328 321.726 28.256C322.238 29.184 322.494 30.288 322.494 31.568C322.494 33.008 322.078 34.272 321.246 35.36C320.414 36.416 319.31 37.232 317.934 37.808C316.59 38.384 315.086 38.672 313.422 38.672C312.462 38.672 311.598 38.576 310.83 38.384C310.094 38.192 309.454 37.952 308.91 37.664C308.494 37.472 308.094 37.296 307.71 37.136C307.358 36.944 307.022 36.784 306.702 36.656C306.382 36.56 306.094 36.672 305.838 36.992C305.614 37.312 305.438 37.76 305.31 38.336H304.302C304.366 37.312 304.414 36.064 304.446 34.592C304.478 33.12 304.494 31.168 304.494 28.736H305.502C305.694 30.464 306.046 32 306.558 33.344C307.07 34.656 307.758 35.696 308.622 36.464C309.518 37.2 310.638 37.568 311.982 37.568C312.526 37.568 313.054 37.456 313.566 37.232C314.078 37.008 314.494 36.64 314.814 36.128C315.166 35.616 315.342 34.96 315.342 34.16C315.342 32.752 314.878 31.584 313.95 30.656C313.054 29.728 311.902 28.72 310.494 27.632C309.47 26.8 308.494 25.984 307.566 25.184C306.67 24.352 305.934 23.456 305.358 22.496C304.782 21.504 304.494 20.384 304.494 19.136C304.494 17.696 304.878 16.48 305.646 15.488C306.414 14.496 307.422 13.76 308.67 13.28C309.95 12.768 311.31 12.512 312.75 12.512ZM331.658 0.799998C333.002 0.799998 334.058 1.136 334.826 1.808C335.626 2.448 336.026 3.344 336.026 4.496C336.026 5.648 335.626 6.56 334.826 7.232C334.058 7.872 333.002 8.192 331.658 8.192C330.314 8.192 329.242 7.872 328.442 7.232C327.674 6.56 327.29 5.648 327.29 4.496C327.29 3.344 327.674 2.448 328.442 1.808C329.242 1.136 330.314 0.799998 331.658 0.799998ZM335.402 12.656V33.536C335.402 34.88 335.626 35.792 336.074 36.272C336.554 36.752 337.354 36.992 338.474 36.992V38C337.898 37.968 337.002 37.936 335.786 37.904C334.57 37.84 333.338 37.808 332.09 37.808C330.842 37.808 329.578 37.84 328.298 37.904C327.018 37.936 326.058 37.968 325.418 38V36.992C326.538 36.992 327.322 36.752 327.77 36.272C328.25 35.792 328.49 34.88 328.49 33.536V18.416C328.49 16.976 328.266 15.92 327.818 15.248C327.402 14.544 326.602 14.192 325.418 14.192V13.184C326.442 13.28 327.434 13.328 328.394 13.328C329.738 13.328 330.986 13.28 332.138 13.184C333.322 13.056 334.41 12.88 335.402 12.656ZM358.414 12.512C359.758 12.512 360.846 12.688 361.678 13.04C362.542 13.36 363.214 13.808 363.694 14.384C364.206 14.992 364.574 15.776 364.798 16.736C365.054 17.696 365.182 18.992 365.182 20.624V33.536C365.182 34.88 365.406 35.792 365.854 36.272C366.334 36.752 367.134 36.992 368.254 36.992V38C367.646 37.968 366.734 37.936 365.518 37.904C364.302 37.84 363.102 37.808 361.918 37.808C360.702 37.808 359.502 37.84 358.318 37.904C357.166 37.936 356.286 37.968 355.678 38V36.992C356.638 36.992 357.31 36.752 357.694 36.272C358.078 35.792 358.27 34.88 358.27 33.536V18.608C358.27 17.808 358.19 17.12 358.03 16.544C357.87 15.936 357.582 15.472 357.166 15.152C356.75 14.8 356.126 14.624 355.294 14.624C354.43 14.624 353.63 14.864 352.894 15.344C352.19 15.824 351.614 16.496 351.166 17.36C350.75 18.192 350.542 19.136 350.542 20.192V33.536C350.542 34.88 350.734 35.792 351.118 36.272C351.534 36.752 352.206 36.992 353.134 36.992V38C352.558 37.968 351.71 37.936 350.59 37.904C349.502 37.84 348.366 37.808 347.182 37.808C345.966 37.808 344.718 37.84 343.438 37.904C342.158 37.936 341.198 37.968 340.558 38V36.992C341.678 36.992 342.462 36.752 342.91 36.272C343.39 35.792 343.63 34.88 343.63 33.536V18.416C343.63 16.976 343.406 15.92 342.958 15.248C342.542 14.544 341.742 14.192 340.558 14.192V13.184C341.582 13.28 342.574 13.328 343.534 13.328C344.878 13.328 346.126 13.28 347.278 13.184C348.462 13.056 349.55 12.88 350.542 12.656V16.976C351.342 15.344 352.43 14.192 353.806 13.52C355.182 12.848 356.718 12.512 358.414 12.512Z" fill="#141414"/>
</svg>
